{"title":"GODS OF EGYPT (2016) HQ 1080p Bluray Rip x264 DTS-X ESub -DDR","uid":14674772,"size":14136021418,"categoryP":"video","categoryS":"hd___movies","magnet":"?xt=urn:btih:6f394652d133167d6b69f9b204ad2fe92eb0c56a&amp;dn=GODS+OF+EGYPT+%282016%29+HQ+1080p+Bluray+Rip+x264+DTS-X+ESub+-DDR&amp;tr=udp%3A%2F%2Ftracker.leechers-paradise.org%3A6969&amp;tr=udp%3A%2F%2Fzer0day.ch%3A1337&amp;tr=udp%3A%2F%2Fopen.demonii.com%3A1337&amp;tr=udp%3A%2F%2Ftracker.coppersurfer.tk%3A6969&amp;tr=udp%3A%2F%2Fexodus.desync.com%3A6969","seeders":7,"leechers":2,"uploader":"SaM","files":3,"time":1463930510,"description":"- HollywooD MoviE -\r\n**- Gods Of Egypt -**\r\n- (2016) -\r\n** HQ 1080p Blu-Ray / x264 / DTS-X 7.1 **\r\nEnglish subtitles \r\n \nhttp://extraimago.com/image/aUeI \nhttp://extraimago.com/image/aUel \nhttp://extraimago.com/image/aUei \nhttp://extraimago.com/image/aUem \nhttp://extraimago.com/image/aUeR \nhttp://extraimago.com/image/aUeQ \nhttp://extraimago.com/image/aUeL \nhttp://extraimago.com/image/aUey\r\n\r\n[ Specs ]\r\nGeneral\r\nSource = BD50 @ DDR\r\nFormat : Matroska\r\nFile size : 13.1 GiB\r\nDuration : 2h 7mn\r\nOverall bit rate : 14.7 Mbps\r\n\r\nVideo\r\nFormat : AVC\r\nFormat profile :   \r\nBit rate : 10 000 Kbps\r\nWidth : 1 920 pixels\r\nHeight : 800 pixels\r\nDisplay aspect ratio : 2.40:1\r\nFrame rate mode : Constant\r\nFrame rate : 23.976 (24000/1001) fps\r\nBit depth : 8 bits\r\nScan type : Progressive\r\nStream size : 8.83 GiB (67%)\r\nTransfer characteristics : BT.709\r\n\r\nAudio #1\r\nFormat : DTS\r\nFormat/Info : Digital Theater Systems\r\nFormat profile : X / MA / Core\r\nMode : 16\r\nFormat settings, Endianness : Big\r\nCodec ID : A_DTS\r\nDuration : 2h 7mn\r\nBit rate mode : Variable / Variable / Constant\r\nBit rate : 4 735 Kbps / 4 735 Kbps / 1 509 Kbps\r\nChannel(s) : Object Based / 8 channels / 6 channels\r\nChannel positions : Object Based / Front: L C R, Side: L R, Back: L R, LFE / Front: L C R, Side: L R, LFE\r\nSampling rate : / 48.0 KHz / 48.0 KHz\r\nFrame rate : 93.750 fps (512 spf)\r\nBit depth : / 24 bits / 24 bits\r\nCompression mode : / Lossless / Lossy\r\nStream size : 4.20 GiB (32%)\r\nLanguage : English\r\nDefault : Yes\r\nForced : No\r\n\r\nChapters: YES\r\n\r\n\r\nA DDR Exclusive Release...!","torrent":{"xt":"urn:btih:6f394652d133167d6b69f9b204ad2fe92eb0c56a","amp;dn":"GODS+OF+EGYPT+%282016%29+HQ+1080p+Bluray+Rip+x264+DTS-X+ESub+-DDR","amp;tr":["udp%3A%2F%2Ftracker.leechers-paradise.org%3A6969","udp%3A%2F%2Fzer0day.ch%3A1337","udp%3A%2F%2Fopen.demonii.com%3A1337","udp%3A%2F%2Ftracker.coppersurfer.tk%3A6969","udp%3A%2F%2Fexodus.desync.com%3A6969"],"infoHash":"6f394652d133167d6b69f9b204ad2fe92eb0c56a","infoHashBuffer":{"type":"Buffer","data":[111,57,70,82,209,51,22,125,107,105,249,178,4,173,47,233,46,176,197,106]},"announce":[],"urlList":[]}}